<?xml version="1.0" encoding="utf-8"?>
<!-- Generator: Adobe Illustrator 13.0.0, SVG Export Plug-In . SVG Version: 6.00 Build 14948)  -->
<!DOCTYPE svg PUBLIC "-//W3C//DTD SVG 1.0//EN" "http://www.w3.org/TR/2001/REC-SVG-20010904/DTD/svg10.dtd">
<svg version="1.0" xmlns="http://www.w3.org/2000/svg" xmlns:xlink="http://www.w3.org/1999/xlink" x="0px" y="0px"
	 width="100.54004px" height="54.32764px" viewBox="0 0 100.54004 54.32764" enable-background="new 0 0 100.54004 54.32764"
	 xml:space="preserve">
<g id="BoundingBox">
	<rect fill="none" width="100.54004" height="54.32764"/>
</g>
<g id="HTWK">
	<path d="M43.98975,0.05322v4.66797h-6.74072v19.88477h-5.57324V4.72119h-6.74072V0.05322H43.98975z M51.27832,24.60596h6.85449
		l2.2959-11.14697c0.41406-1.8833,0.7168-3.87939,1.0166-5.68701h0.15137c0.26465,1.80762,0.56445,3.80371,0.97949,5.68701
		l2.41016,11.14697h6.9668l4.36816-24.55322h-5.30957l-1.69434,11.48584c-0.33984,2.52246-0.67871,5.12158-1.01758,7.75684h-0.15039
		c-0.48926-2.63525-0.97949-5.27148-1.46973-7.75684L64.04395,0.05273h-4.70703l-2.63477,11.48584
		c-0.49121,2.56055-0.97949,5.15869-1.46973,7.75684h-0.15039c-0.30176-2.59814-0.67773-5.19629-0.97949-7.75684L52.4082,0.05273
		h-5.68652L51.27832,24.60596z M80.08594,24.60596h5.57422V14.44092h2.63184l6.17969,10.16504h6.0625l-7.63086-12.69043
		l5.89551-11.86279h-5.53027l-5.01758,9.86279h-2.59082V0.05273h-5.57422V24.60596z M16.22217,24.60596h5.57275V0.05273H18.229
		h-2.00684V24.60596z M0.53467,24.60596h5.57324V0.05322H3.88818H0.53467V24.60596z M7.88721,13.11523h6.55664v-2.38916h-3.85938
		H7.88721V13.11523z"/>
</g>
<g id="Claim_en_unten">
	<path d="M0.53564,37.32373h0.65332v4.61133h2.2627v0.55859H0.53564V37.32373z M4.03271,40.58643
		c0-1.25391,0.84277-2.01758,1.71777-2.01758c0.97754,0,1.5293,0.70117,1.5293,1.79785c0,0.13379-0.00781,0.27539-0.02344,0.36914
		H4.67041c0.04785,0.8125,0.54443,1.33301,1.27734,1.33301c0.3623,0,0.66943-0.11914,0.95312-0.2998l0.22852,0.4248
		c-0.33105,0.21387-0.74023,0.39453-1.26074,0.39453C4.84424,42.58838,4.03271,41.83936,4.03271,40.58643z M6.7124,40.271
		c0-0.77246-0.34766-1.18945-0.94629-1.18945c-0.53613,0-1.02441,0.43359-1.10352,1.18945H6.7124z M8.354,37.45752
		c0-0.25195,0.19727-0.41699,0.44922-0.41699s0.44922,0.16504,0.44922,0.41699c0,0.24316-0.19727,0.41797-0.44922,0.41797
		S8.354,37.70068,8.354,37.45752z M8.47217,38.66357h0.31348h0.33301v3.83008H8.47217V38.66357z M10.64014,38.66357h0.53613
		l0.05566,0.44141h0.02344c0.34668-0.29199,0.77246-0.53613,1.22168-0.53613c0.98535,0,1.51367,0.76367,1.51367,1.95508
		c0,1.30078-0.78027,2.06445-1.65527,2.06445c-0.35449,0-0.70996-0.16602-1.06445-0.44043l0.01562,0.66992v1.29297h-0.64648
		V38.66357z M13.3208,40.52393c0-0.84277-0.28418-1.41113-1.00879-1.41113c-0.32373,0-0.64648,0.18164-1.02539,0.52051v2.00977
		c0.34668,0.29199,0.68652,0.40234,0.93848,0.40234C12.85498,42.04541,13.3208,41.46924,13.3208,40.52393z M14.70605,42.14795
		l2.01807-2.95605h-1.79736v-0.52832h2.6167v0.34668l-2.01758,2.95605h2.08057v0.52734h-2.90039V42.14795z M18.65576,37.45752
		c0-0.25195,0.19678-0.41699,0.44922-0.41699c0.25195,0,0.44922,0.16504,0.44922,0.41699c0,0.24316-0.19727,0.41797-0.44922,0.41797
		C18.85254,37.87549,18.65576,37.70068,18.65576,37.45752z M18.77393,38.66357h0.39209h0.25391v3.83008h-0.646V38.66357z
		 M20.6333,43.22705c0-0.32324,0.21191-0.62988,0.55908-0.86816v-0.03027c-0.18896-0.11816-0.33887-0.32324-0.33887-0.62207
		c0-0.32324,0.22021-0.57617,0.4165-0.70996v-0.03223c-0.25146-0.2041-0.49512-0.5752-0.49512-1.03125
		c0-0.83594,0.66113-1.36426,1.44141-1.36426c0.21289,0,0.40283,0.04004,0.54443,0.09473h1.33154v0.49609H23.3042
		c0.18066,0.17285,0.31543,0.46582,0.31543,0.78809c0,0.81934-0.62256,1.33301-1.40332,1.33301
		c-0.18848,0-0.40137-0.04785-0.5752-0.13379c-0.13379,0.11816-0.24414,0.24316-0.24414,0.45703
		c0,0.24316,0.1582,0.41602,0.67773,0.41602h0.74121c0.89062,0,1.33984,0.27637,1.33984,0.91504
		c0,0.70898-0.74902,1.32422-1.93945,1.32422C21.2793,44.25928,20.6333,43.88916,20.6333,43.22705z M23.52539,43.02979
		c0-0.35449-0.27686-0.47266-0.77295-0.47266h-0.66211c-0.1499,0-0.33057-0.01465-0.49609-0.06348
		c-0.27637,0.19727-0.39453,0.42578-0.39453,0.64648c0,0.41016,0.41846,0.66992,1.1123,0.66992
		C23.04443,43.81006,23.52539,43.43115,23.52539,43.02979z M23.02881,39.93311c0-0.56055-0.36328-0.8916-0.8125-0.8916
		s-0.81201,0.33105-0.81201,0.8916c0,0.55859,0.37061,0.91309,0.81201,0.91309S23.02881,40.4917,23.02881,39.93311z
		 M26.9873,40.35791v-3.03418h0.6543v3.0498c0,1.24512,0.52881,1.63965,1.20605,1.63965c0.68555,0,1.22168-0.39453,1.22168-1.63965
		v-3.0498h0.63037v3.03418c0,1.66211-0.79541,2.23047-1.85205,2.23047C27.79199,42.58838,26.9873,42.02002,26.9873,40.35791z
		 M32.06641,38.66357h0.53613l0.05566,0.55176h0.02344c0.36279-0.3623,0.75684-0.64648,1.28467-0.64648
		c0.80469,0,1.1665,0.52051,1.1665,1.49707v2.42773h-0.64648v-2.34082c0-0.7168-0.21973-1.02441-0.72461-1.02441
		c-0.39404,0-0.66211,0.2041-1.04883,0.5918v2.77344h-0.64648V38.66357z M36.44434,37.45752
		c0-0.25195,0.19727-0.41699,0.44922-0.41699c0.25293,0,0.44922,0.16504,0.44922,0.41699c0,0.24316-0.19629,0.41797-0.44922,0.41797
		C36.6416,37.87549,36.44434,37.70068,36.44434,37.45752z M36.5625,38.66357h0.31738h0.32861v3.83008h-0.646V38.66357z
		 M38.21436,38.66357h0.67041l0.72461,2.1748c0.11035,0.37891,0.2373,0.76562,0.35449,1.12793h0.03174
		c0.10986-0.3623,0.23633-0.74902,0.34619-1.12793l0.72559-2.1748h0.63867l-1.35547,3.83008h-0.75684L38.21436,38.66357z
		 M42.28564,40.58643c0-1.25391,0.84326-2.01758,1.71826-2.01758c0.97754,0,1.5293,0.70117,1.5293,1.79785
		c0,0.13379-0.00781,0.27539-0.02441,0.36914h-2.58496c0.04736,0.8125,0.54395,1.33301,1.27734,1.33301
		c0.36182,0,0.66895-0.11914,0.95312-0.2998l0.22852,0.4248c-0.33057,0.21387-0.74023,0.39453-1.26074,0.39453
		C43.09717,42.58838,42.28564,41.83936,42.28564,40.58643z M44.96582,40.271c0-0.77246-0.34717-1.18945-0.94629-1.18945
		c-0.53516,0-1.02441,0.43359-1.104,1.18945H44.96582z M46.71729,38.66357h0.53564l0.05518,0.69336h0.02393
		c0.25977-0.48047,0.65381-0.78809,1.08789-0.78809c0.16504,0,0.2832,0.02441,0.40967,0.0791l-0.12646,0.56738
		c-0.12646-0.04004-0.21289-0.06348-0.37012-0.06348c-0.32324,0-0.70996,0.23633-0.96973,0.88281v2.45898h-0.646V38.66357z
		 M49.26465,42.06006l0.32275-0.43359c0.33154,0.26855,0.67041,0.45703,1.12842,0.45703c0.50391,0,0.75586-0.2666,0.75586-0.59766
		c0-0.39453-0.45703-0.56738-0.875-0.72559c-0.54346-0.19824-1.14258-0.45605-1.14258-1.10449
		c0-0.61426,0.48828-1.08691,1.31641-1.08691c0.48047,0,0.89844,0.19629,1.18945,0.43359l-0.30664,0.41016
		c-0.25977-0.19727-0.53613-0.33887-0.875-0.33887c-0.48096,0-0.70215,0.25879-0.70215,0.55176
		c0,0.3623,0.41895,0.49512,0.85156,0.66113c0.55176,0.20508,1.16699,0.43359,1.16699,1.1582
		c0,0.62402-0.49609,1.14355-1.40332,1.14355C50.14746,42.58838,49.62744,42.35889,49.26465,42.06006z M53.05176,37.45752
		c0-0.25195,0.19629-0.41699,0.44922-0.41699c0.25195,0,0.44922,0.16504,0.44922,0.41699c0,0.24316-0.19727,0.41797-0.44922,0.41797
		C53.24805,37.87549,53.05176,37.70068,53.05176,37.45752z M53.16895,38.66357h0.33008h0.31641v3.83008h-0.64648V38.66357z
		 M55.45605,41.31201v-2.12012h-0.56738v-0.48926l0.59863-0.03906l0.0791-1.07227h0.54395v1.07227h1.03223v0.52832h-1.03223v2.12793
		c0,0.47266,0.14941,0.74023,0.5918,0.74023c0.13281,0,0.30664-0.05469,0.43262-0.10254l0.12598,0.48926
		c-0.21289,0.07031-0.47266,0.1416-0.70898,0.1416C55.73145,42.58838,55.45605,42.06885,55.45605,41.31201z M57.86133,44.06201
		l0.12695-0.51172c0.0791,0.02344,0.19629,0.05566,0.29004,0.05566c0.43457,0,0.70996-0.34766,0.86816-0.81934l0.08594-0.28516
		l-1.53613-3.83789h0.66992l0.78027,2.12012c0.11816,0.33105,0.25098,0.72461,0.36914,1.08105h0.03223
		c0.11035-0.34863,0.2207-0.74219,0.32422-1.08105l0.68457-2.12012h0.63086l-1.44141,4.14453
		c-0.26855,0.75781-0.66211,1.33301-1.43555,1.33301C58.1377,44.14111,57.98828,44.11084,57.86133,44.06201z M0.18896,50.44482
		c0-1.28516,0.83496-2.01855,1.77295-2.01855s1.77344,0.7334,1.77344,2.01855c0,1.26758-0.83545,2-1.77344,2
		S0.18896,51.7124,0.18896,50.44482z M3.06592,50.44482c0-0.88281-0.44189-1.48242-1.104-1.48242
		c-0.6543,0-1.10303,0.59961-1.10303,1.48242c0,0.87305,0.44873,1.46484,1.10303,1.46484
		C2.62402,51.90967,3.06592,51.31787,3.06592,50.44482z M5.09326,49.04932H4.57324v-0.48926L5.09326,48.521v-0.60645
		c0-0.78027,0.354-1.26953,1.11914-1.26953c0.23633,0,0.46484,0.05566,0.63818,0.12598l-0.14111,0.49609
		c-0.14258-0.0625-0.29199-0.09375-0.43359-0.09375c-0.36328,0-0.53613,0.25195-0.53613,0.74121V48.521h0.81152v0.52832H5.73975
		v3.30273H5.09326V49.04932z M10.46338,47.18213h0.74072l1.74951,5.16992h-0.70166l-0.48828-1.57715H9.87939l-0.49561,1.57715
		H8.71338L10.46338,47.18213z M10.04541,50.24658h1.55273l-0.24463-0.78809c-0.18896-0.57422-0.35498-1.14258-0.52051-1.74121
		h-0.03076c-0.15771,0.59863-0.32324,1.16699-0.5127,1.74121L10.04541,50.24658z M13.8623,48.521h0.53564l0.05518,0.44141h0.02393
		c0.34668-0.29199,0.77246-0.53613,1.22168-0.53613c0.98535,0,1.51318,0.76367,1.51318,1.95508
		c0,1.2998-0.77979,2.06348-1.65479,2.06348c-0.35498,0-0.70996-0.16504-1.06396-0.43945l0.01514,0.66992v1.29297h-0.646V48.521z
		 M16.54248,50.38135c0-0.84375-0.28418-1.41113-1.00879-1.41113c-0.32422,0-0.64648,0.18164-1.02539,0.52051v2.00977
		c0.34766,0.29102,0.68652,0.40137,0.93848,0.40137C16.07715,51.90186,16.54248,51.32568,16.54248,50.38135z M18.37598,48.521
		h0.53564l0.05518,0.44141h0.02344c0.34717-0.29199,0.77295-0.53613,1.22168-0.53613c0.98535,0,1.51416,0.76367,1.51416,1.95508
		c0,1.2998-0.78076,2.06348-1.65576,2.06348c-0.35449,0-0.70947-0.16504-1.06396-0.43945l0.01562,0.66992v1.29297h-0.646V48.521z
		 M21.05566,50.38135c0-0.84375-0.28369-1.41113-1.00928-1.41113c-0.32324,0-0.646,0.18164-1.02441,0.52051v2.00977
		c0.34668,0.29102,0.68555,0.40137,0.93848,0.40137C20.59033,51.90186,21.05566,51.32568,21.05566,50.38135z M22.98877,51.57861
		v-4.83789h0.64648v4.88574c0,0.2041,0.08594,0.2832,0.18164,0.2832c0.03857,0,0.06982,0,0.1416-0.01562l0.08691,0.48828
		c-0.08691,0.04102-0.19727,0.0625-0.37109,0.0625C23.18604,52.44482,22.98877,52.13818,22.98877,51.57861z M25.11768,47.31592
		c0-0.25391,0.19727-0.41992,0.44971-0.41992c0.25146,0,0.44922,0.16602,0.44922,0.41992c0,0.24316-0.19775,0.41602-0.44922,0.41602
		C25.31494,47.73193,25.11768,47.55908,25.11768,47.31592z M25.23633,48.521h0.41895h0.22705v3.83105h-0.646V48.521z
		 M27.12793,50.44482c0-1.25488,0.84375-2.01855,1.71826-2.01855c0.97803,0,1.5293,0.70117,1.5293,1.79688
		c0,0.13379-0.00732,0.27637-0.02393,0.37012H27.7666c0.04688,0.8125,0.54346,1.33203,1.27637,1.33203
		c0.36279,0,0.66992-0.11816,0.9541-0.29883l0.22754,0.4248c-0.32959,0.21289-0.73975,0.39355-1.26074,0.39355
		C27.93994,52.44482,27.12793,51.69678,27.12793,50.44482z M29.80762,50.12842c0-0.77246-0.34668-1.18945-0.94531-1.18945
		c-0.53564,0-1.02539,0.43359-1.104,1.18945H29.80762z M31.22852,50.44482c0-1.24512,0.78809-2.01855,1.66406-2.01855
		c0.44092,0,0.73242,0.16504,1.07129,0.44238l-0.03125-0.65527v-1.47266h0.65381v5.61133h-0.53564l-0.05518-0.4502h-0.02393
		c-0.2998,0.29199-0.70898,0.54297-1.1582,0.54297C31.85156,52.44482,31.22852,51.72217,31.22852,50.44482z M33.93262,51.37354
		v-2.00098c-0.32324-0.29199-0.61523-0.40234-0.92969-0.40234c-0.61475,0-1.10449,0.5918-1.10449,1.46582
		c0,0.91504,0.38672,1.46582,1.05664,1.46582C33.30957,51.90186,33.6167,51.729,33.93262,51.37354z M37.61621,51.68115
		l0.39453-0.45605c0.37012,0.38574,0.89062,0.64551,1.42627,0.64551c0.67773,0,1.07959-0.33887,1.07959-0.84375
		c0-0.52734-0.37012-0.69336-0.85889-0.91406l-0.74121-0.32324c-0.48877-0.20508-1.04785-0.57422-1.04785-1.33301
		c0-0.78711,0.68506-1.37012,1.62354-1.37012c0.61523,0,1.1582,0.25977,1.52832,0.6377l-0.35352,0.42676
		c-0.31641-0.30078-0.69385-0.48926-1.1748-0.48926c-0.57568,0-0.96191,0.29102-0.96191,0.75781
		c0,0.49512,0.44873,0.68555,0.85889,0.85742l0.73291,0.31641c0.6001,0.25879,1.06445,0.61523,1.06445,1.37891
		c0,0.81934-0.66992,1.47266-1.75684,1.47266C38.7041,52.44482,38.06543,52.146,37.61621,51.68115z M41.93945,50.44482
		c0-1.28516,0.85938-2.01855,1.84424-2.01855c0.50439,0,0.85107,0.2041,1.11963,0.4502l-0.33105,0.42383
		c-0.2207-0.19531-0.45703-0.33789-0.76465-0.33789c-0.69336,0-1.19824,0.59961-1.19824,1.48242
		c0,0.87305,0.48096,1.46484,1.18262,1.46484c0.35449,0,0.66211-0.17285,0.89844-0.38574l0.2832,0.43359
		c-0.34668,0.30664-0.7793,0.4873-1.2373,0.4873C42.71973,52.44482,41.93945,51.7124,41.93945,50.44482z M45.85156,47.31592
		c0-0.25391,0.19727-0.41992,0.44922-0.41992c0.25244,0,0.4502,0.16602,0.4502,0.41992c0,0.24316-0.19775,0.41602-0.4502,0.41602
		C46.04883,47.73193,45.85156,47.55908,45.85156,47.31592z M45.9707,48.521h0.3125h0.33301v3.83105H45.9707V48.521z
		 M47.86279,50.44482c0-1.25488,0.84326-2.01855,1.71826-2.01855c0.97803,0,1.53027,0.70117,1.53027,1.79688
		c0,0.13379-0.00879,0.27637-0.02441,0.37012h-2.58496c0.04639,0.8125,0.54297,1.33203,1.27637,1.33203
		c0.3623,0,0.66992-0.11816,0.95361-0.29883l0.22803,0.4248c-0.3291,0.21289-0.74023,0.39355-1.26074,0.39355
		C48.6748,52.44482,47.86279,51.69678,47.86279,50.44482z M50.54297,50.12842c0-0.77246-0.34717-1.18945-0.94629-1.18945
		c-0.53564,0-1.02441,0.43359-1.10303,1.18945H50.54297z M52.27832,48.521h0.53711l0.05371,0.55078h0.02441
		c0.36328-0.36133,0.75586-0.64551,1.28516-0.64551c0.80371,0,1.16602,0.52051,1.16602,1.49707v2.42871h-0.64648v-2.3418
		c0-0.71777-0.21973-1.02344-0.72461-1.02344c-0.39453,0-0.66211,0.20312-1.04883,0.58984v2.77539h-0.64648V48.521z
		 M56.50684,50.44482c0-1.28516,0.85938-2.01855,1.84375-2.01855c0.50586,0,0.85254,0.2041,1.12012,0.4502l-0.33105,0.42383
		c-0.2207-0.19531-0.45703-0.33789-0.76465-0.33789c-0.69238,0-1.19727,0.59961-1.19727,1.48242
		c0,0.87305,0.48047,1.46484,1.18066,1.46484c0.35547,0,0.66309-0.17285,0.89941-0.38574l0.2832,0.43359
		c-0.34668,0.30664-0.78027,0.4873-1.23633,0.4873C57.28711,52.44482,56.50684,51.7124,56.50684,50.44482z M60.25195,50.44482
		c0-1.25488,0.84375-2.01855,1.71875-2.01855c0.97754,0,1.52832,0.70117,1.52832,1.79688c0,0.13379-0.00684,0.27637-0.02344,0.37012
		H60.8916c0.0459,0.8125,0.54297,1.33203,1.27539,1.33203c0.36328,0,0.6709-0.11816,0.9541-0.29883l0.22852,0.4248
		c-0.33008,0.21289-0.74023,0.39355-1.26074,0.39355C61.06445,52.44482,60.25195,51.69678,60.25195,50.44482z M62.93262,50.12842
		c0-0.77246-0.34766-1.18945-0.94629-1.18945c-0.53613,0-1.02441,0.43359-1.10254,1.18945H62.93262z M64.25879,51.91748
		l0.32227-0.43359c0.33105,0.26855,0.66992,0.45703,1.12695,0.45703c0.50488,0,0.75781-0.26758,0.75781-0.59766
		c0-0.39453-0.45801-0.56836-0.87598-0.72559c-0.54297-0.19727-1.14258-0.45703-1.14258-1.10449
		c0-0.61426,0.48926-1.08691,1.31738-1.08691c0.48047,0,0.89746,0.19629,1.18945,0.43262l-0.30762,0.41113
		c-0.25977-0.19824-0.53613-0.33887-0.87402-0.33887c-0.48145,0-0.70215,0.25879-0.70215,0.55176
		c0,0.3623,0.41797,0.49512,0.85059,0.66113c0.55273,0.20508,1.16699,0.43359,1.16699,1.15918
		c0,0.62207-0.49707,1.1416-1.40332,1.1416C65.14062,52.44482,64.62012,52.21729,64.25879,51.91748z"/>
</g>
</svg>
